# Blender 4.2.3 LTS
# www.blender.org
mtllib cube.mtl
o Cube
v 0.032500 0.032500 0.032500
v 0.032500 0.032500 -0.032500
v 0.032500 -0.032500 0.032500
v 0.032500 -0.032500 -0.032500
v -0.032500 0.032500 0.032500
v -0.032500 0.032500 -0.032500
v -0.032500 -0.032500 0.032500
v -0.032500 -0.032500 -0.032500
vn -0.0000 -0.0000 1.0000
vn -0.0000 -1.0000 -0.0000
vn -1.0000 -0.0000 -0.0000
vn -0.0000 -0.0000 -1.0000
vn 1.0000 -0.0000 -0.0000
vn -0.0000 1.0000 -0.0000
vt 0.666633 0.999900
vt 0.333366 0.749950
vt 0.666633 0.749950
vt 0.000100 0.500000
vt 0.333366 0.500000
vt 0.333366 0.000100
vt 0.666633 0.250050
vt 0.333366 0.250050
vt 0.666633 0.500000
vt 0.999900 0.749950
vt 0.999900 0.500000
vt 0.333366 0.999900
vt 0.666633 0.000100
vt 0.000100 0.749950
s 0
usemtl Material.001
f 5/1/1 3/2/1 1/3/1
f 3/2/2 8/4/2 4/5/2
f 7/6/3 6/7/3 8/8/3
f 2/9/4 8/8/4 6/7/4
f 1/3/5 4/5/5 2/9/5
f 5/10/6 2/9/6 6/11/6
f 5/10/6 1/3/6 2/9/6
f 1/3/5 3/2/5 4/5/5
f 2/9/4 4/5/4 8/8/4
f 5/1/1 7/12/1 3/2/1
f 7/6/3 5/13/3 6/7/3
f 3/2/2 7/14/2 8/4/2
